HIERARCHY
ROOT pelvis
{
  OFFSET 0 100 0
  CHANNELS 6 Xposition Yposition Zposition Zrotation Xrotation Yrotation
  JOINT pelvis_right_femur
  {
    OFFSET -10.78128 -3.44521 -0.5502486
    CHANNELS 3 Zrotation Xrotation Yrotation
    JOINT right_femur_tibia
    {
      OFFSET -0.8047443 -44.0398 -0.1307829
      CHANNELS 3 Zrotation Xrotation Yrotation
      JOINT right_tibia_foot
      {
        OFFSET 3.006224 -47.83518 -5
        CHANNELS 3 Zrotation Xrotation Yrotation
        End Site
        {
          OFFSET 0 -5 15
        }
      }
    }
  }
  JOINT pelvis_left_femur
  {
    OFFSET 10.78128 -3.44521 -0.5502486
    CHANNELS 3 Zrotation Xrotation Yrotation
    JOINT left_femur_tibia
    {
      OFFSET 0.8047443 -44.0398 -0.1307829
      CHANNELS 3 Zrotation Xrotation Yrotation
      JOINT left_tibia_foot
      {
        OFFSET -4.370144 -48.10324 -4.275266
        CHANNELS 3 Zrotation Xrotation Yrotation
        End Site
        {
          OFFSET 0 -5 15
        }
      }
    }
  }
  JOINT pelvis_spine1
  {
    OFFSET 0 6.468898 -3.129235
    CHANNELS 3 Zrotation Xrotation Yrotation
    JOINT spine1
    {
      OFFSET 0 23.15396 4.99043
      CHANNELS 3 Zrotation Xrotation Yrotation
      JOINT spine2
      {
        OFFSET 0 20.79997 -5.064912
        CHANNELS 3 Zrotation Xrotation Yrotation
        JOINT neck
        {
          OFFSET 0 14.38658 9.616178
          CHANNELS 3 Zrotation Xrotation Yrotation
          End Site
          {
            OFFSET 0 20 0
          }
        }
      }
      JOINT right_manubrium
      {
        OFFSET -5.722621 16.35077 3.967754
        CHANNELS 3 Zrotation Xrotation Yrotation
        JOINT right_clavicle
        {
          OFFSET -13.16364 1.694482 -4.693211
          CHANNELS 3 Zrotation Xrotation Yrotation
          JOINT right_humerus
          {
            OFFSET -28.5034 -0.3100689 -2.792744
            CHANNELS 3 Zrotation Xrotation Yrotation
            JOINT right_radius
            {
              OFFSET -25.15693 0.02248979 -1.271978
              CHANNELS 3 Zrotation Xrotation Yrotation
              End Site
              {
                OFFSET -15 0 0
              }
            }
          }
        }
      }
      JOINT left_manubrium
      {
        OFFSET 5.722621 16.35077 3.967754
        CHANNELS 3 Zrotation Xrotation Yrotation
        JOINT left_clavicle
        {
          OFFSET 13.16364 1.694482 -4.693211
          CHANNELS 3 Zrotation Xrotation Yrotation
          JOINT left_humerus
          {
            OFFSET 29.39168 -1.063119 -2.237045
            CHANNELS 3 Zrotation Xrotation Yrotation
            JOINT left_radius
            {
              OFFSET 24.59957 -0.9528479 0.9047498
              CHANNELS 3 Zrotation Xrotation Yrotation
              End Site
              {
                OFFSET 15 -0 -0
              }
            }
          }
        }
      }
    }
  }
}
MOTION
Frames: 11
Frame Time: 0.0416666666667
-1539.868 142.3436 1242.645 -7.680323 11.32098 -140.3996 4.211508 17.96318 1.506875 -0 25.72589 -0 -10.76606 -14.82042 -5.787321 3.64406 -13.8169 -7.186874 -0 7.646314 -0 -3.739372 -2.109176 18.20816 0.7794681 -1.117322 4.520343 -0.1525978 12.74281 -3.719832 2.886674 23.35229 1.085546 -0.05798814 -14.59807 5.327791 -2.527957 -27.45195 11.04154 89.07633 14.25889 -5.594427 -0 0 26.24571 -20.6049 13.60133 14.2792 1.539124 -17.90475 -7.296396 -99.08275 19.78034 35.07228 -0 0 4.512969 -1.218174 16.6815 12.24806
-1543.808 142.2658 1238.994 -7.61479 11.36484 -140.7328 4.211508 17.96318 1.506875 -0 25.72589 -0 -10.76606 -14.82042 -5.787321 3.64406 -13.8169 -7.186874 -0 7.646314 -0 -3.739372 -2.109176 18.20816 0.7794681 -1.117322 4.520343 -0.1525978 12.74281 -3.719832 2.886674 23.35229 1.085546 -0.05798814 -14.59807 5.327791 -2.527957 -27.45195 11.04154 89.07633 14.25889 -5.594427 -0 0 26.24571 -20.6049 13.60133 14.2792 1.539124 -17.90475 -7.296396 -99.08275 19.78034 35.07228 -0 0 4.512969 -1.218174 16.6815 12.24806
-1547.728 142.1879 1235.32 -7.548989 11.40833 -141.0661 4.211508 17.96318 1.506875 -0 25.72589 -0 -10.76606 -14.82042 -5.787321 3.64406 -13.8169 -7.186874 -0 7.646314 -0 -3.739372 -2.109176 18.20816 0.7794681 -1.117322 4.520343 -0.1525978 12.74281 -3.719832 2.886674 23.35229 1.085546 -0.05798814 -14.59807 5.327791 -2.527957 -27.45195 11.04154 89.07633 14.25889 -5.594427 -0 0 26.24571 -20.6049 13.60133 14.2792 1.539124 -17.90475 -7.296396 -99.08275 19.78034 35.07228 -0 0 4.512969 -1.218174 16.6815 12.24806
-1551.626 142.1101 1231.624 -7.48292 11.45145 -141.3995 4.211508 17.96318 1.506875 -0 25.72589 -0 -10.76606 -14.82042 -5.787321 3.64406 -13.8169 -7.186874 -0 7.646314 -0 -3.739372 -2.109176 18.20816 0.7794681 -1.117322 4.520343 -0.1525978 12.74281 -3.719832 2.886674 23.35229 1.085546 -0.05798814 -14.59807 5.327791 -2.527957 -27.45195 11.04154 89.07633 14.25889 -5.594427 -0 0 26.24571 -20.6049 13.60133 14.2792 1.539124 -17.90475 -7.296396 -99.08275 19.78034 35.07228 -0 0 4.512969 -1.218174 16.6815 12.24806
-1555.504 142.0323 1227.905 -7.416587 11.49418 -141.7329 4.211508 17.96318 1.506875 -0 25.72589 -0 -10.76606 -14.82042 -5.787321 3.64406 -13.8169 -7.186874 -0 7.646314 -0 -3.739372 -2.109176 18.20816 0.7794681 -1.117322 4.520343 -0.1525978 12.74281 -3.719832 2.886674 23.35229 1.085546 -0.05798814 -14.59807 5.327791 -2.527957 -27.45195 11.04154 89.07633 14.25889 -5.594427 -0 0 26.24571 -20.6049 13.60133 14.2792 1.539124 -17.90475 -7.296396 -99.08275 19.78034 35.07228 -0 0 4.512969 -1.218174 16.6815 12.24806
-1559.359 141.9545 1224.164 -7.34999 11.53654 -142.0665 4.211508 17.96318 1.506875 -0 25.72589 -0 -10.76606 -14.82042 -5.787321 3.64406 -13.8169 -7.186874 -0 7.646314 -0 -3.739372 -2.109176 18.20816 0.7794681 -1.117322 4.520343 -0.1525978 12.74281 -3.719832 2.886674 23.35229 1.085546 -0.05798814 -14.59807 5.327791 -2.527957 -27.45195 11.04154 89.07633 14.25889 -5.594427 -0 0 26.24571 -20.6049 13.60133 14.2792 1.539124 -17.90475 -7.296396 -99.08275 19.78034 35.07228 -0 0 4.512969 -1.218174 16.6815 12.24806
-1563.193 141.8767 1220.402 -7.283133 11.57852 -142.4002 4.211508 17.96318 1.506875 -0 25.72589 -0 -10.76606 -14.82042 -5.787321 3.64406 -13.8169 -7.186874 -0 7.646314 -0 -3.739372 -2.109176 18.20816 0.7794681 -1.117322 4.520343 -0.1525978 12.74281 -3.719832 2.886674 23.35229 1.085546 -0.05798814 -14.59807 5.327791 -2.527957 -27.45195 11.04154 89.07633 14.25889 -5.594427 -0 0 26.24571 -20.6049 13.60133 14.2792 1.539124 -17.90475 -7.296396 -99.08275 19.78034 35.07228 -0 0 4.512969 -1.218174 16.6815 12.24806
-1567.006 141.7988 1216.617 -7.216018 11.62011 -142.734 4.211508 17.96318 1.506875 -0 25.72589 -0 -10.76606 -14.82042 -5.787321 3.64406 -13.8169 -7.186874 -0 7.646314 -0 -3.739372 -2.109176 18.20816 0.7794681 -1.117322 4.520343 -0.1525978 12.74281 -3.719832 2.886674 23.35229 1.085546 -0.05798814 -14.59807 5.327791 -2.527957 -27.45195 11.04154 89.07633 14.25889 -5.594427 -0 0 26.24571 -20.6049 13.60133 14.2792 1.539124 -17.90475 -7.296396 -99.08275 19.78034 35.07228 -0 0 4.512969 -1.218174 16.6815 12.24806
-1570.796 141.721 1212.81 -7.148646 11.66132 -143.0679 4.211508 17.96318 1.506875 -0 25.72589 -0 -10.76606 -14.82042 -5.787321 3.64406 -13.8169 -7.186874 -0 7.646314 -0 -3.739372 -2.109176 18.20816 0.7794681 -1.117322 4.520343 -0.1525978 12.74281 -3.719832 2.886674 23.35229 1.085546 -0.05798814 -14.59807 5.327791 -2.527957 -27.45195 11.04154 89.07633 14.25889 -5.594427 -0 0 26.24571 -20.6049 13.60133 14.2792 1.539124 -17.90475 -7.296396 -99.08275 19.78034 35.07228 -0 0 4.512969 -1.218174 16.6815 12.24806
-1574.565 141.6432 1208.981 -7.08102 11.70215 -143.4019 4.211508 17.96318 1.506875 -0 25.72589 -0 -10.76606 -14.82042 -5.787321 3.64406 -13.8169 -7.186874 -0 7.646314 -0 -3.739372 -2.109176 18.20816 0.7794681 -1.117322 4.520343 -0.1525978 12.74281 -3.719832 2.886674 23.35229 1.085546 -0.05798814 -14.59807 5.327791 -2.527957 -27.45195 11.04154 89.07633 14.25889 -5.594427 -0 0 26.24571 -20.6049 13.60133 14.2792 1.539124 -17.90475 -7.296396 -99.08275 19.78034 35.07228 -0 0 4.512969 -1.218174 16.6815 12.24806
-1578.311 141.5654 1205.131 -7.013143 11.74259 -143.736 4.211508 17.96318 1.506875 -0 25.72589 -0 -10.76606 -14.82042 -5.787321 3.64406 -13.8169 -7.186874 -0 7.646314 -0 -3.739372 -2.109176 18.20816 0.7794681 -1.117322 4.520343 -0.1525978 12.74281 -3.719832 2.886674 23.35229 1.085546 -0.05798814 -14.59807 5.327791 -2.527957 -27.45195 11.04154 89.07633 14.25889 -5.594427 -0 0 26.24571 -20.6049 13.60133 14.2792 1.539124 -17.90475 -7.296396 -99.08275 19.78034 35.07228 -0 0 4.512969 -1.218174 16.6815 12.24806
